<?xml version="1.0" encoding="UTF-8" standalone="no"?>
<!DOCTYPE svg PUBLIC "-//W3C//DTD SVG 1.1//EN" "http://www.w3.org/Graphics/SVG/1.1/DTD/svg11.dtd">
<svg width="100%" height="100%" viewBox="0 0 352 352" version="1.1" xmlns="http://www.w3.org/2000/svg" xmlns:xlink="http://www.w3.org/1999/xlink" xml:space="preserve" xmlns:serif="http://www.serif.com/" style="fill-rule:evenodd;clip-rule:evenodd;stroke-linecap:round;stroke-linejoin:round;stroke-miterlimit:10;">
    <g transform="matrix(1,0,0,1,-220.033,-130.533)">
        <g id="Layer-1" serif:id="Layer 1">
            <g transform="matrix(1,0,0,1,396,133.283)">
                <path d="M0,346.435C-95.512,346.435 -173.217,268.73 -173.217,173.217C-173.217,77.705 -95.512,0 0,0C95.513,0 173.218,77.705 173.218,173.217C173.218,268.73 95.513,346.435 0,346.435" style="fill:rgb(34,181,115);fill-rule:nonzero;"/>
            </g>
            <g transform="matrix(1,0,0,1,396,482.467)">
                <path d="M0,-351.934C-97.184,-351.934 -175.967,-273.151 -175.967,-175.967C-175.967,-78.783 -97.184,0 0,0C97.184,0 175.967,-78.783 175.967,-175.967C175.967,-273.151 97.184,-351.934 0,-351.934M0,-346.435C45.534,-346.435 88.342,-328.703 120.539,-296.506C152.736,-264.309 170.468,-221.501 170.468,-175.967C170.468,-130.433 152.736,-87.625 120.539,-55.428C88.342,-23.231 45.534,-5.499 0,-5.499C-45.534,-5.499 -88.342,-23.231 -120.539,-55.428C-152.736,-87.625 -170.468,-130.433 -170.468,-175.967C-170.468,-221.501 -152.736,-264.309 -120.539,-296.506C-88.342,-328.703 -45.534,-346.435 0,-346.435" style="fill:white;fill-rule:nonzero;"/>
            </g>
            <g transform="matrix(1,0,0,1,390.684,302.352)">
                <path d="M0,-19.082C2.707,-19.082 3.159,-15.97 3.159,-14.103C3.068,-7.789 -2.798,-0.765 -11.101,-0.676C-9.205,-9.034 -5.054,-19.082 0,-19.082M-120.826,14.72C-119.687,19.332 -115.713,21.465 -109.89,21.465C-106.096,21.465 -101.384,18.028 -97.196,14.219C-96.248,19.183 -92.26,21.465 -86.228,21.465C-81.882,21.465 -76.333,16.957 -71.745,12.544C-71.422,18.668 -67.257,21.465 -60.586,21.465C-56.458,21.465 -51.245,17.398 -46.801,13.209C-46.219,18.872 -42.115,21.465 -35.689,21.465C-31.856,21.465 -27.088,17.958 -22.869,14.104C-20.882,18.446 -16.825,21.465 -10.92,21.465C-5.153,21.465 0.136,20.448 3.202,17.208C5.054,15.25 2.732,12.206 0.341,13.474C-1.541,14.471 -3.491,15.063 -5.595,15.063C-9.115,15.063 -12.093,13.284 -12.093,7.416C-12.093,6.349 -12.003,5.015 -11.822,3.592C-3.249,2.525 8.574,-3.699 8.574,-14.547C8.574,-20.772 4.422,-23.795 -2.978,-23.795C-19.404,-23.795 -24.277,-3.966 -24.277,7.327C-24.277,8.575 -24.139,9.788 -23.892,10.952C-25.776,12.341 -27.641,13.373 -29.281,13.373C-32.801,13.373 -33.794,12.039 -33.794,10.083C-33.794,9.372 -33.613,8.572 -33.343,7.238L-23.676,-37.483C-23.329,-39.088 -24.702,-40.547 -26.352,-40.327L-34.643,-39.223C-35.65,-39.089 -36.462,-38.347 -36.674,-37.368L-46.338,7.238C-46.492,7.959 -46.607,8.64 -46.695,9.296C-49.26,11.441 -51.929,13.373 -54.178,13.373C-57.788,13.373 -58.69,12.039 -58.69,9.994C-58.69,9.555 -58.778,8.681 -52.763,-18.492C-52.641,-19.044 -52.145,-19.438 -51.572,-19.438L-48.137,-19.438C-47.557,-19.438 -47.057,-19.842 -46.943,-20.403L-46.708,-21.558C-46.557,-22.301 -47.134,-22.994 -47.903,-22.994L-50.328,-22.994C-51.103,-22.994 -51.68,-23.699 -51.52,-24.446C-50.706,-28.227 -49.993,-31.483 -49.496,-33.737C-49.142,-35.344 -50.516,-36.81 -52.17,-36.59L-60.449,-35.488C-61.452,-35.354 -62.263,-34.616 -62.478,-33.642L-64.618,-23.94C-64.74,-23.388 -65.236,-22.994 -65.809,-22.994L-66.807,-22.994C-67.387,-22.994 -67.888,-22.59 -68.001,-22.029L-68.236,-20.874C-68.387,-20.131 -67.81,-19.438 -67.041,-19.438C-66.268,-19.438 -65.69,-18.739 -65.848,-17.993C-67.315,-11.055 -70.436,1.835 -71.449,8.543C-74.278,10.967 -77.311,13.373 -79.82,13.373C-83.43,13.373 -84.333,12.039 -84.333,9.994C-84.333,9.555 -84.421,8.681 -78.405,-18.492C-78.283,-19.044 -77.787,-19.438 -77.215,-19.438L-73.78,-19.438C-73.199,-19.438 -72.699,-19.842 -72.585,-20.403L-72.35,-21.558C-72.2,-22.301 -72.776,-22.994 -73.545,-22.994L-75.971,-22.994C-76.745,-22.994 -77.323,-23.699 -77.162,-24.446C-76.349,-28.227 -75.636,-31.483 -75.139,-33.737C-74.784,-35.344 -76.158,-36.81 -77.813,-36.59L-86.091,-35.488C-87.094,-35.354 -87.905,-34.616 -88.121,-33.642L-90.261,-23.94C-90.383,-23.388 -90.879,-22.994 -91.452,-22.994L-92.449,-22.994C-93.03,-22.994 -93.53,-22.59 -93.644,-22.029L-93.878,-20.874C-94.029,-20.131 -93.453,-19.438 -92.684,-19.438C-91.91,-19.438 -91.332,-18.739 -91.49,-17.993C-93.106,-10.355 -96.725,4.499 -97.33,10.373C-99.471,12.046 -101.621,13.373 -103.482,13.373C-107.092,13.373 -107.995,11.951 -107.995,9.994C-107.995,9.194 -107.815,8.216 -107.634,7.238L-101.751,-20.132C-101.434,-21.607 -102.576,-22.994 -104.106,-22.994L-112.181,-22.994C-113.318,-22.994 -114.3,-22.21 -114.536,-21.115L-120.63,7.238C-120.918,8.585 -121.086,9.814 -121.144,10.935C-123.036,12.333 -124.908,13.373 -126.555,13.373C-130.075,13.373 -131.068,12.039 -131.068,10.083C-131.068,9.372 -130.887,8.572 -130.617,7.238L-120.95,-37.483C-120.603,-39.088 -121.976,-40.547 -123.626,-40.327L-131.917,-39.223C-132.924,-39.089 -133.736,-38.347 -133.948,-37.368L-143.613,7.238C-143.974,8.927 -144.154,10.439 -144.154,11.773C-144.154,18.441 -139.912,21.465 -132.963,21.465C-129.336,21.465 -124.871,18.323 -120.826,14.72" style="fill:white;fill-rule:nonzero;"/>
            </g>
            <g transform="matrix(1,0,0,1,539.924,285.645)">
                <path d="M0,-2.906C-9.332,-1.641 -10.327,2.973 -10.327,2.973C-10.327,2.973 -11.998,-7.352 4.186,-7.537C4.186,-7.537 4.485,-4.12 0,-2.906M-7.424,-7.059C-10.559,-5.072 -13.73,0.921 -11.618,3.917C-9.506,6.913 -2.723,6.041 0.225,3.791C4.018,0.895 6.859,-8.614 6.489,-9.139C6.119,-9.663 -3.071,-9.819 -7.424,-7.059" style="fill:white;fill-rule:nonzero;"/>
            </g>
            <g transform="matrix(1,0,0,1,542.094,294.516)">
                <path d="M0,-25.295C1.139,-25.295 2.075,-26.17 2.143,-27.29C2.174,-27.803 2.19,-28.348 2.19,-28.941C2.19,-34.72 -2.733,-37.255 -8.238,-37.255C-14.194,-37.255 -21.956,-34.854 -24.663,-22.139L-32.057,11.96C-27.666,9.312 -22.233,4.564 -17.227,-3.937C-17.055,-4.289 -16.877,-4.607 -16.688,-4.869C-17.293,-8.091 -15.461,-13.015 -12.871,-16.558L-11.667,-22.139C-10.404,-28.096 -7.546,-30.179 -5.561,-30.179C-3.756,-30.179 -2.142,-29.741 -2.142,-27.696C-2.142,-27.609 -2.143,-27.523 -2.145,-27.437C-2.173,-26.259 -1.196,-25.295 0,-25.295" style="fill:white;fill-rule:nonzero;"/>
            </g>
            <g transform="matrix(1,0,0,1,516.893,331.115)">
                <path d="M0,-23.129C-0.206,-22.891 -0.412,-22.66 -0.617,-22.436C-0.654,-22.395 -0.692,-22.355 -0.73,-22.314C-0.915,-22.113 -1.1,-21.917 -1.285,-21.727C-1.325,-21.685 -1.366,-21.643 -1.406,-21.602C-1.598,-21.406 -1.789,-21.215 -1.979,-21.031C-2.004,-21.006 -2.03,-20.981 -2.055,-20.956C-2.713,-20.321 -3.356,-19.754 -3.975,-19.251C-4.007,-19.225 -4.038,-19.2 -4.07,-19.175C-4.238,-19.039 -4.405,-18.907 -4.57,-18.781C-4.614,-18.747 -4.658,-18.713 -4.702,-18.68C-4.855,-18.563 -5.007,-18.45 -5.157,-18.341C-5.2,-18.309 -5.244,-18.277 -5.287,-18.246C-5.445,-18.132 -5.6,-18.024 -5.753,-17.918C-5.783,-17.899 -5.812,-17.877 -5.841,-17.858C-6.205,-17.61 -6.553,-17.387 -6.885,-17.185C-6.932,-17.156 -6.978,-17.13 -7.024,-17.102C-7.136,-17.034 -7.247,-16.969 -7.356,-16.906C-7.415,-16.872 -7.473,-16.839 -7.532,-16.806C-7.623,-16.754 -7.714,-16.704 -7.802,-16.656C-7.863,-16.623 -7.923,-16.59 -7.983,-16.558L-12.188,0.126C-13.53,5.834 -15.36,7.301 -17.115,6.586C-22.09,4.558 -18.182,-3.987 -16.573,-5.015C-16.27,-5.487 -16.686,-5.561 -16.999,-5.464C-19.968,-4.544 -25.579,-0.526 -25.905,5.372C-26.225,11.143 -20.761,14.975 -15.256,14.975C-9.39,14.975 -1.899,12.575 0.898,-0.141L9.535,-37.894C9.492,-38.104 3.2,-26.822 0,-23.129" style="fill:white;fill-rule:nonzero;"/>
            </g>
            <g transform="matrix(1,0,0,1,488.25,276.61)">
                <path d="M0,33.024C-0.271,34.091 -0.451,35.069 -0.541,35.958C-2.256,38.448 -4.242,40.404 -6.317,40.404C-8.574,40.404 -11.552,39.426 -11.552,34.091C-11.552,21.998 -6.137,7.86 0.632,7.86C1.895,7.86 3.61,8.216 5.054,9.461L0,33.024ZM-30.745,6.704C-28.037,6.704 -27.586,9.816 -27.586,11.684C-27.676,17.997 -33.542,25.021 -41.845,25.11C-39.95,16.752 -35.798,6.704 -30.745,6.704M18.502,38.269C18.162,38.453 17.112,38.782 16.829,38.848C13.313,39.667 12.635,37.737 12.635,35.781C12.635,34.98 12.815,34.002 12.996,33.024L18.879,5.654C19.195,4.18 18.054,2.792 16.524,2.792L8.412,2.792C7.292,2.792 6.319,3.554 6.067,4.63L5.956,5.104C4.332,3.77 2.076,2.881 -0.09,2.881C-17.2,2.881 -23.115,19.339 -23.685,34.08C-27.328,38.107 -32.217,40.849 -35.438,40.849C-38.957,40.849 -42.838,39.07 -42.838,33.202C-42.838,32.135 -42.748,30.801 -42.567,29.378C-33.994,28.311 -22.171,22.087 -22.171,11.239C-22.171,5.015 -26.322,1.991 -33.723,1.991C-50.148,1.991 -55.022,21.82 -55.022,33.113C-55.022,34.373 -54.882,35.597 -54.63,36.771C-56.5,38.144 -58.348,39.159 -59.976,39.159C-63.496,39.159 -64.488,37.826 -64.488,35.869C-64.488,35.158 -64.308,34.358 -64.037,33.024L-54.371,-11.697C-54.024,-13.302 -55.396,-14.76 -57.047,-14.541L-65.337,-13.437C-66.344,-13.303 -67.157,-12.561 -67.369,-11.582L-77.033,33.024C-77.394,34.713 -77.574,36.225 -77.574,37.559C-77.574,44.228 -73.333,47.251 -66.384,47.251C-62.561,47.251 -57.809,43.763 -53.598,39.921C-51.605,44.246 -47.556,47.251 -41.665,47.251C-34.426,47.251 -28.339,43.778 -23.533,38.95C-22.801,43.458 -19.873,47.784 -12.544,47.784C-7.039,47.784 -2.978,44.139 -0.271,40.493C0.704,44.336 3.596,47.491 7.939,47.061C15.363,46.327 18.024,39.356 18.502,38.269" style="fill:white;fill-rule:nonzero;"/>
            </g>
            <g transform="matrix(1,0,0,1,297.079,359.049)">
                <path d="M0,-14.654C0,-14.94 0.088,-15.028 0.374,-15.028L1.519,-15.028C1.804,-15.028 1.893,-14.94 1.893,-14.654L1.893,0C1.893,0.286 1.804,0.374 1.519,0.374L0.374,0.374C0.088,0.374 0,0.286 0,0L0,-14.654Z" style="fill:white;fill-rule:nonzero;stroke:white;stroke-width:0.34px;"/>
            </g>
            <g transform="matrix(1,0,0,1,309.684,355.156)">
                <path d="M0,-6.866L-0.022,-6.866L-0.022,3.894C-0.022,4.18 -0.11,4.268 -0.396,4.268L-1.541,4.268C-1.826,4.268 -1.915,4.18 -1.915,3.894L-1.915,-11.178C-1.915,-11.31 -1.871,-11.354 -1.738,-11.354L-1.584,-11.354C-1.452,-11.354 -1.364,-11.31 -1.254,-11.178L8.867,-0.001L8.889,-0.001L8.889,-10.761C8.889,-11.047 8.955,-11.135 9.241,-11.135L10.407,-11.135C10.693,-11.135 10.781,-11.047 10.781,-10.761L10.781,4.312C10.781,4.444 10.737,4.488 10.605,4.488L10.451,4.488C10.319,4.488 10.231,4.444 10.121,4.312L0,-6.866Z" style="fill:white;fill-rule:nonzero;stroke:white;stroke-width:0.34px;"/>
            </g>
            <g transform="matrix(1,0,0,1,339.27,359.424)">
                <path d="M0,-15.402C0.286,-15.402 0.374,-15.314 0.374,-15.028L0.374,-13.971C0.374,-13.685 0.286,-13.597 0,-13.597L-4.753,-13.597L-4.753,-0.374C-4.753,-0.088 -4.841,0 -5.127,0L-6.293,0C-6.557,0 -6.645,-0.088 -6.645,-0.374L-6.645,-13.597L-11.42,-13.597C-11.684,-13.597 -11.772,-13.685 -11.772,-13.971L-11.772,-15.028C-11.772,-15.314 -11.684,-15.402 -11.42,-15.402L0,-15.402Z" style="fill:white;fill-rule:nonzero;stroke:white;stroke-width:0.34px;"/>
            </g>
            <g transform="matrix(1,0,0,1,347.053,344.022)">
                <path d="M0,15.402C-0.286,15.402 -0.374,15.314 -0.374,15.028L-0.374,0.374C-0.374,0.088 -0.286,0 0,0L9.813,0C10.078,0 10.166,0.088 10.166,0.374L10.166,1.43C10.166,1.716 10.078,1.804 9.813,1.804L1.519,1.804L1.519,6.711L9.396,6.711C9.682,6.711 9.748,6.798 9.748,7.085L9.748,8.163C9.748,8.449 9.682,8.515 9.396,8.515L1.519,8.515L1.519,13.597L9.923,13.597C10.188,13.597 10.276,13.686 10.276,13.971L10.276,15.028C10.276,15.314 10.188,15.402 9.923,15.402L0,15.402Z" style="fill:white;fill-rule:nonzero;stroke:white;stroke-width:0.34px;"/>
            </g>
            <g transform="matrix(1,0,0,1,371.207,351.569)">
                <path d="M0,0.308C2.882,0.308 3.63,-1.167 3.63,-2.773C3.63,-4.379 2.882,-5.743 0,-5.743L-3.851,-5.743L-3.851,0.308L0,0.308ZM-3.851,7.481C-3.851,7.767 -3.939,7.855 -4.225,7.855L-5.391,7.855C-5.655,7.855 -5.743,7.767 -5.743,7.481L-5.743,-7.173C-5.743,-7.46 -5.655,-7.547 -5.391,-7.547L0.198,-7.547C2.86,-7.547 5.544,-6.271 5.544,-2.707C5.544,0.264 3.674,1.628 1.518,2.002L5.369,7.414C5.588,7.723 5.435,7.855 5.126,7.855L3.762,7.855C3.476,7.855 3.3,7.723 3.124,7.481L-0.704,2.112L-3.851,2.112L-3.851,7.481Z" style="fill:white;fill-rule:nonzero;stroke:white;stroke-width:0.34px;"/>
            </g>
            <g transform="matrix(1,0,0,1,390.475,355.442)">
                <path d="M0,-7.658L-2.905,-1.629L2.904,-1.629L0.022,-7.658L0,-7.658ZM7.525,3.608C7.635,3.827 7.569,3.982 7.349,3.982L5.963,3.982C5.677,3.982 5.522,3.894 5.391,3.608L3.807,0.263L-3.807,0.263L-5.391,3.608C-5.523,3.894 -5.655,3.982 -5.963,3.982L-7.349,3.982C-7.569,3.982 -7.635,3.827 -7.525,3.608L-0.352,-11.421C-0.264,-11.596 -0.198,-11.64 -0.066,-11.64L0.066,-11.64C0.198,-11.64 0.264,-11.596 0.352,-11.421L7.525,3.608Z" style="fill:white;fill-rule:nonzero;stroke:white;stroke-width:0.34px;"/>
            </g>
            <g transform="matrix(1,0,0,1,416.124,347.498)">
                <path d="M0,8.449C0.197,8.251 0.329,8.295 0.506,8.493L1.254,9.329C1.452,9.55 1.474,9.659 1.254,9.88C-0.133,11.288 -2.245,12.212 -4.423,12.212C-8.868,12.212 -12.3,8.713 -12.3,4.224C-12.3,-0.264 -8.868,-3.763 -4.423,-3.763C-2.201,-3.763 -0.11,-2.817 1.298,-1.386C1.496,-1.189 1.452,-1.078 1.254,-0.859L0.483,-0.022C0.264,0.198 0.132,0.198 -0.066,-0C-1.034,-1.034 -2.442,-1.958 -4.423,-1.958C-7.855,-1.958 -10.386,0.902 -10.386,4.224C-10.386,7.547 -7.855,10.407 -4.423,10.407C-2.442,10.407 -1.034,9.506 0,8.449" style="fill:white;fill-rule:nonzero;"/>
            </g>
            <g transform="matrix(1,0,0,1,416.124,347.498)">
                <path d="M0,8.449C0.197,8.251 0.329,8.295 0.506,8.493L1.254,9.329C1.452,9.55 1.474,9.659 1.254,9.88C-0.133,11.288 -2.245,12.212 -4.423,12.212C-8.868,12.212 -12.3,8.713 -12.3,4.224C-12.3,-0.264 -8.868,-3.763 -4.423,-3.763C-2.201,-3.763 -0.11,-2.817 1.298,-1.386C1.496,-1.189 1.452,-1.078 1.254,-0.859L0.483,-0.022C0.264,0.198 0.132,0.198 -0.066,-0C-1.034,-1.034 -2.442,-1.958 -4.423,-1.958C-7.855,-1.958 -10.386,0.902 -10.386,4.224C-10.386,7.547 -7.855,10.407 -4.423,10.407C-2.442,10.407 -1.034,9.506 0,8.449Z" style="fill:none;fill-rule:nonzero;stroke:white;stroke-width:0.34px;"/>
            </g>
            <g transform="matrix(1,0,0,1,435.15,359.424)">
                <path d="M0,-15.402C0.286,-15.402 0.374,-15.314 0.374,-15.028L0.374,-13.971C0.374,-13.685 0.286,-13.597 0,-13.597L-4.753,-13.597L-4.753,-0.374C-4.753,-0.088 -4.841,0 -5.127,0L-6.293,0C-6.557,0 -6.646,-0.088 -6.646,-0.374L-6.646,-13.597L-11.42,-13.597C-11.684,-13.597 -11.771,-13.685 -11.771,-13.971L-11.771,-15.028C-11.771,-15.314 -11.684,-15.402 -11.42,-15.402L0,-15.402Z" style="fill:white;fill-rule:nonzero;stroke:white;stroke-width:0.34px;"/>
            </g>
            <g transform="matrix(1,0,0,1,442.559,359.049)">
                <path d="M0,-14.654C0,-14.94 0.088,-15.028 0.374,-15.028L1.519,-15.028C1.805,-15.028 1.893,-14.94 1.893,-14.654L1.893,0C1.893,0.286 1.805,0.374 1.519,0.374L0.374,0.374C0.088,0.374 0,0.286 0,0L0,-14.654Z" style="fill:white;fill-rule:nonzero;stroke:white;stroke-width:0.34px;"/>
            </g>
            <g transform="matrix(1,0,0,1,451.533,359.269)">
                <path d="M0,-14.874C-0.11,-15.094 -0.044,-15.248 0.176,-15.248L1.562,-15.248C1.848,-15.248 2.002,-15.16 2.134,-14.874L7.503,-3.608L7.547,-3.608L12.916,-14.874C13.048,-15.16 13.201,-15.248 13.487,-15.248L14.874,-15.248C15.094,-15.248 15.16,-15.094 15.05,-14.874L7.877,0.154C7.789,0.33 7.723,0.374 7.591,0.374L7.459,0.374C7.327,0.374 7.261,0.33 7.173,0.154L0,-14.874Z" style="fill:white;fill-rule:nonzero;stroke:white;stroke-width:0.34px;"/>
            </g>
            <g transform="matrix(1,0,0,1,474.035,344.022)">
                <path d="M0,15.402C-0.286,15.402 -0.374,15.314 -0.374,15.028L-0.374,0.374C-0.374,0.088 -0.286,0 0,0L9.813,0C10.077,0 10.166,0.088 10.166,0.374L10.166,1.43C10.166,1.716 10.077,1.804 9.813,1.804L1.519,1.804L1.519,6.711L9.396,6.711C9.682,6.711 9.748,6.798 9.748,7.085L9.748,8.163C9.748,8.449 9.682,8.515 9.396,8.515L1.519,8.515L1.519,13.597L9.924,13.597C10.188,13.597 10.275,13.686 10.275,13.971L10.275,15.028C10.275,15.314 10.188,15.402 9.924,15.402L0,15.402Z" style="fill:white;fill-rule:nonzero;stroke:white;stroke-width:0.34px;"/>
            </g>
            <g transform="matrix(1,0,0,1,285.396,260.507)">
                <path d="M0,14.138C3.971,14.138 7.22,11.026 7.22,7.113C7.22,3.201 3.971,0 0,0C-3.971,0 -7.13,3.201 -7.13,7.113C-7.13,11.026 -3.971,14.138 0,14.138" style="fill:white;fill-rule:nonzero;"/>
            </g>
        </g>
    </g>
</svg>
