<?xml version="1.0" encoding="UTF-8" standalone="no"?>
<!DOCTYPE svg PUBLIC "-//W3C//DTD SVG 1.1//EN" "http://www.w3.org/Graphics/SVG/1.1/DTD/svg11.dtd">
<svg width="100%" height="100%" viewBox="0 0 411 141" version="1.1" xmlns="http://www.w3.org/2000/svg" xmlns:xlink="http://www.w3.org/1999/xlink" xml:space="preserve" xmlns:serif="http://www.serif.com/" style="fill-rule:evenodd;clip-rule:evenodd;stroke-linecap:round;stroke-linejoin:round;stroke-miterlimit:10;">
    <g transform="matrix(1,0,0,1,-190.768,-211.656)">
        <g transform="matrix(1,0,0,1,259.949,350.964)">
            <path d="M0,-20.056C0,-20.448 0.12,-20.568 0.512,-20.568L2.078,-20.568C2.469,-20.568 2.59,-20.448 2.59,-20.056L2.59,0C2.59,0.391 2.469,0.512 2.078,0.512L0.512,0.512C0.12,0.512 0,0.391 0,0L0,-20.056Z" style="fill:rgb(43,37,35);fill-rule:nonzero;stroke:white;stroke-width:0.47px;"/>
        </g>
        <g transform="matrix(1,0,0,1,277.2,345.633)">
            <path d="M0,-9.395L-0.03,-9.395L-0.03,5.331C-0.03,5.722 -0.151,5.843 -0.542,5.843L-2.108,5.843C-2.499,5.843 -2.62,5.722 -2.62,5.331L-2.62,-15.297C-2.62,-15.478 -2.56,-15.538 -2.379,-15.538L-2.169,-15.538C-1.987,-15.538 -1.867,-15.478 -1.717,-15.297L12.136,0.001L12.166,0.001L12.166,-14.725C12.166,-15.117 12.256,-15.237 12.648,-15.237L14.243,-15.237C14.635,-15.237 14.755,-15.117 14.755,-14.725L14.755,5.903C14.755,6.083 14.695,6.143 14.515,6.143L14.303,6.143C14.123,6.143 14.003,6.083 13.852,5.903L0,-9.395Z" style="fill:rgb(43,37,35);fill-rule:nonzero;stroke:white;stroke-width:0.47px;"/>
        </g>
        <g transform="matrix(1,0,0,1,317.692,351.476)">
            <path d="M0,-21.08C0.392,-21.08 0.512,-20.96 0.512,-20.568L0.512,-19.122C0.512,-18.73 0.392,-18.61 0,-18.61L-6.505,-18.61L-6.505,-0.512C-6.505,-0.121 -6.625,0 -7.017,0L-8.613,0C-8.974,0 -9.094,-0.121 -9.094,-0.512L-9.094,-18.61L-15.629,-18.61C-15.99,-18.61 -16.111,-18.73 -16.111,-19.122L-16.111,-20.568C-16.111,-20.96 -15.99,-21.08 -15.629,-21.08L0,-21.08Z" style="fill:rgb(43,37,35);fill-rule:nonzero;stroke:white;stroke-width:0.47px;"/>
        </g>
        <g transform="matrix(1,0,0,1,328.344,330.396)">
            <path d="M0,21.08C-0.391,21.08 -0.512,20.96 -0.512,20.568L-0.512,0.512C-0.512,0.121 -0.391,0 0,0L13.431,0C13.792,0 13.913,0.121 13.913,0.512L13.913,1.958C13.913,2.35 13.792,2.47 13.431,2.47L2.078,2.47L2.078,9.185L12.859,9.185C13.25,9.185 13.341,9.305 13.341,9.697L13.341,11.172C13.341,11.564 13.25,11.655 12.859,11.655L2.078,11.655L2.078,18.61L13.581,18.61C13.943,18.61 14.064,18.732 14.064,19.122L14.064,20.568C14.064,20.96 13.943,21.08 13.581,21.08L0,21.08Z" style="fill:rgb(43,37,35);fill-rule:nonzero;stroke:white;stroke-width:0.47px;"/>
        </g>
        <g transform="matrix(1,0,0,1,361.401,340.725)">
            <path d="M0,0.422C3.945,0.422 4.969,-1.596 4.969,-3.795C4.969,-5.992 3.945,-7.859 0,-7.859L-5.27,-7.859L-5.27,0.422L0,0.422ZM-5.27,10.239C-5.27,10.63 -5.391,10.751 -5.782,10.751L-7.378,10.751C-7.74,10.751 -7.86,10.63 -7.86,10.239L-7.86,-9.817C-7.86,-10.209 -7.74,-10.329 -7.378,-10.329L0.271,-10.329C3.915,-10.329 7.588,-8.582 7.588,-3.704C7.588,0.362 5.029,2.229 2.078,2.741L7.348,10.148C7.648,10.57 7.438,10.751 7.016,10.751L5.149,10.751C4.757,10.751 4.517,10.57 4.276,10.239L-0.964,2.891L-5.27,2.891L-5.27,10.239Z" style="fill:rgb(43,37,35);fill-rule:nonzero;stroke:white;stroke-width:0.47px;"/>
        </g>
        <g transform="matrix(1,0,0,1,387.771,346.026)">
            <path d="M0,-10.48L-3.975,-2.228L3.975,-2.228L0.03,-10.48L0,-10.48ZM10.299,4.938C10.45,5.239 10.359,5.45 10.058,5.45L8.161,5.45C7.769,5.45 7.558,5.33 7.378,4.938L5.21,0.361L-5.21,0.361L-7.378,4.938C-7.559,5.33 -7.739,5.45 -8.161,5.45L-10.058,5.45C-10.359,5.45 -10.45,5.239 -10.299,4.938L-0.482,-15.63C-0.362,-15.87 -0.271,-15.93 -0.09,-15.93L0.09,-15.93C0.271,-15.93 0.362,-15.87 0.482,-15.63L10.299,4.938Z" style="fill:rgb(43,37,35);fill-rule:nonzero;stroke:white;stroke-width:0.47px;"/>
        </g>
        <g transform="matrix(1,0,0,1,422.874,335.155)">
            <path d="M0,11.563C0.27,11.292 0.45,11.352 0.692,11.623L1.716,12.767C1.987,13.069 2.017,13.219 1.716,13.521C-0.182,15.448 -3.073,16.713 -6.053,16.713C-12.137,16.713 -16.833,11.924 -16.833,5.781C-16.833,-0.361 -12.137,-5.15 -6.053,-5.15C-3.013,-5.15 -0.151,-3.855 1.776,-1.897C2.048,-1.627 1.987,-1.476 1.716,-1.175L0.662,-0.03C0.361,0.271 0.18,0.271 -0.091,-0.001C-1.415,-1.416 -3.343,-2.68 -6.053,-2.68C-10.751,-2.68 -14.214,1.234 -14.214,5.781C-14.214,10.328 -10.751,14.243 -6.053,14.243C-3.343,14.243 -1.415,13.009 0,11.563" style="fill:rgb(43,37,35);fill-rule:nonzero;"/>
        </g>
        <g transform="matrix(1,0,0,1,422.874,335.155)">
            <path d="M0,11.563C0.27,11.292 0.45,11.352 0.692,11.623L1.716,12.767C1.987,13.069 2.017,13.219 1.716,13.521C-0.182,15.448 -3.073,16.713 -6.053,16.713C-12.137,16.713 -16.833,11.924 -16.833,5.781C-16.833,-0.361 -12.137,-5.15 -6.053,-5.15C-3.013,-5.15 -0.151,-3.855 1.776,-1.897C2.048,-1.627 1.987,-1.476 1.716,-1.175L0.662,-0.03C0.361,0.271 0.18,0.271 -0.091,-0.001C-1.415,-1.416 -3.343,-2.68 -6.053,-2.68C-10.751,-2.68 -14.214,1.234 -14.214,5.781C-14.214,10.328 -10.751,14.243 -6.053,14.243C-3.343,14.243 -1.415,13.009 0,11.563Z" style="fill:rgb(43,37,35);fill-rule:nonzero;stroke:white;stroke-width:0.47px;"/>
        </g>
        <g transform="matrix(1,0,0,1,448.914,351.476)">
            <path d="M0,-21.08C0.392,-21.08 0.512,-20.96 0.512,-20.568L0.512,-19.122C0.512,-18.73 0.392,-18.61 0,-18.61L-6.505,-18.61L-6.505,-0.512C-6.505,-0.121 -6.625,0 -7.017,0L-8.613,0C-8.973,0 -9.095,-0.121 -9.095,-0.512L-9.095,-18.61L-15.629,-18.61C-15.99,-18.61 -16.11,-18.73 -16.11,-19.122L-16.11,-20.568C-16.11,-20.96 -15.99,-21.08 -15.629,-21.08L0,-21.08Z" style="fill:rgb(43,37,35);fill-rule:nonzero;stroke:white;stroke-width:0.47px;"/>
        </g>
        <g transform="matrix(1,0,0,1,459.053,350.964)">
            <path d="M0,-20.056C0,-20.448 0.12,-20.568 0.512,-20.568L2.078,-20.568C2.47,-20.568 2.59,-20.448 2.59,-20.056L2.59,0C2.59,0.391 2.47,0.512 2.078,0.512L0.512,0.512C0.12,0.512 0,0.391 0,0L0,-20.056Z" style="fill:rgb(43,37,35);fill-rule:nonzero;stroke:white;stroke-width:0.47px;"/>
        </g>
        <g transform="matrix(1,0,0,1,471.335,351.264)">
            <path d="M0,-20.356C-0.151,-20.657 -0.06,-20.868 0.241,-20.868L2.137,-20.868C2.529,-20.868 2.74,-20.748 2.92,-20.356L10.268,-4.938L10.329,-4.938L17.677,-20.356C17.857,-20.748 18.067,-20.868 18.459,-20.868L20.357,-20.868C20.657,-20.868 20.748,-20.657 20.597,-20.356L10.78,0.212C10.66,0.452 10.569,0.512 10.389,0.512L10.208,0.512C10.028,0.512 9.937,0.452 9.817,0.212L0,-20.356Z" style="fill:rgb(43,37,35);fill-rule:nonzero;stroke:white;stroke-width:0.47px;"/>
        </g>
        <g transform="matrix(1,0,0,1,502.131,330.396)">
            <path d="M0,21.08C-0.392,21.08 -0.512,20.96 -0.512,20.568L-0.512,0.512C-0.512,0.121 -0.392,0 0,0L13.431,0C13.792,0 13.913,0.121 13.913,0.512L13.913,1.958C13.913,2.35 13.792,2.47 13.431,2.47L2.078,2.47L2.078,9.185L12.859,9.185C13.25,9.185 13.341,9.305 13.341,9.697L13.341,11.172C13.341,11.564 13.25,11.655 12.859,11.655L2.078,11.655L2.078,18.61L13.582,18.61C13.943,18.61 14.063,18.732 14.063,19.122L14.063,20.568C14.063,20.96 13.943,21.08 13.582,21.08L0,21.08Z" style="fill:rgb(43,37,35);fill-rule:nonzero;stroke:white;stroke-width:0.47px;"/>
        </g>
        <g transform="matrix(1,0,0,1,388.057,273.367)">
            <path d="M0,-26.115C3.705,-26.115 4.323,-21.856 4.323,-19.3C4.2,-10.66 -3.829,-1.046 -15.192,-0.924C-12.599,-12.364 -6.917,-26.115 0,-26.115M-165.362,20.146C-163.804,26.458 -158.365,29.377 -150.396,29.377C-145.203,29.377 -138.755,24.674 -133.023,19.461C-131.725,26.254 -126.267,29.377 -118.012,29.377C-112.063,29.377 -104.469,23.208 -98.19,17.169C-97.748,25.55 -92.048,29.377 -82.917,29.377C-77.268,29.377 -70.134,23.811 -64.051,18.079C-63.255,25.829 -57.639,29.377 -48.844,29.377C-43.598,29.377 -37.073,24.578 -31.298,19.303C-28.579,25.246 -23.027,29.377 -14.945,29.377C-7.052,29.377 0.186,27.986 4.382,23.551C6.917,20.872 3.74,16.706 0.466,18.441C-2.11,19.806 -4.777,20.615 -7.658,20.615C-12.475,20.615 -16.551,18.181 -16.551,10.15C-16.551,8.689 -16.427,6.864 -16.18,4.917C-4.446,3.456 11.734,-5.062 11.734,-19.909C11.734,-28.427 6.052,-32.565 -4.076,-32.565C-26.556,-32.565 -33.225,-5.427 -33.225,10.028C-33.225,11.737 -33.037,13.396 -32.699,14.989C-35.278,16.891 -37.829,18.303 -40.074,18.303C-44.892,18.303 -46.25,16.478 -46.25,13.8C-46.25,12.827 -46.003,11.732 -45.633,9.906L-32.403,-51.299C-31.928,-53.495 -33.807,-55.492 -36.066,-55.191L-47.412,-53.68C-48.79,-53.497 -49.902,-52.481 -50.192,-51.142L-63.419,9.906C-63.63,10.893 -63.786,11.825 -63.907,12.723C-67.418,15.659 -71.07,18.303 -74.148,18.303C-79.088,18.303 -80.324,16.478 -80.324,13.679C-80.324,13.077 -80.444,11.881 -72.211,-25.308C-72.044,-26.063 -71.366,-26.602 -70.581,-26.602L-65.881,-26.602C-65.086,-26.602 -64.402,-27.155 -64.246,-27.923L-63.925,-29.504C-63.718,-30.521 -64.507,-31.47 -65.56,-31.47L-68.879,-31.47C-69.939,-31.47 -70.73,-32.434 -70.51,-33.456C-69.396,-38.631 -68.421,-43.087 -67.74,-46.172C-67.255,-48.372 -69.136,-50.378 -71.4,-50.076L-82.73,-48.568C-84.103,-48.385 -85.213,-47.375 -85.507,-46.041L-88.437,-32.764C-88.604,-32.008 -89.282,-31.47 -90.067,-31.47L-91.431,-31.47C-92.226,-31.47 -92.911,-30.917 -93.067,-30.149L-93.388,-28.567C-93.594,-27.551 -92.805,-26.602 -91.752,-26.602C-90.694,-26.602 -89.903,-25.646 -90.119,-24.625C-92.128,-15.129 -96.398,2.512 -97.785,11.693C-101.657,15.009 -105.807,18.303 -109.242,18.303C-114.183,18.303 -115.418,16.478 -115.418,13.679C-115.418,13.077 -115.539,11.881 -107.305,-25.308C-107.138,-26.063 -106.46,-26.602 -105.676,-26.602L-100.975,-26.602C-100.18,-26.602 -99.496,-27.155 -99.34,-27.923L-99.019,-29.504C-98.812,-30.521 -99.602,-31.47 -100.654,-31.47L-103.973,-31.47C-105.034,-31.47 -105.824,-32.434 -105.604,-33.456C-104.491,-38.631 -103.515,-43.087 -102.835,-46.172C-102.35,-48.372 -104.23,-50.378 -106.495,-50.076L-117.824,-48.568C-119.197,-48.385 -120.307,-47.375 -120.602,-46.041L-123.531,-32.764C-123.698,-32.008 -124.376,-31.47 -125.161,-31.47L-126.526,-31.47C-127.321,-31.47 -128.005,-30.917 -128.161,-30.149L-128.482,-28.567C-128.689,-27.551 -127.899,-26.602 -126.847,-26.602C-125.788,-26.602 -124.997,-25.646 -125.213,-24.625C-127.425,-14.171 -132.378,6.158 -133.206,14.197C-136.136,16.487 -139.078,18.303 -141.626,18.303C-146.567,18.303 -147.802,16.356 -147.802,13.679C-147.802,12.584 -147.555,11.245 -147.308,9.906L-139.257,-27.552C-138.823,-29.57 -140.385,-31.47 -142.479,-31.47L-153.532,-31.47C-155.088,-31.47 -156.431,-30.397 -156.754,-28.897L-165.094,9.906C-165.488,11.75 -165.718,13.432 -165.798,14.967C-168.387,16.879 -170.95,18.303 -173.204,18.303C-178.021,18.303 -179.38,16.478 -179.38,13.8C-179.38,12.827 -179.133,11.732 -178.762,9.906L-165.533,-51.299C-165.058,-53.495 -166.936,-55.492 -169.195,-55.191L-180.542,-53.68C-181.919,-53.497 -183.032,-52.481 -183.322,-51.142L-196.548,9.906C-197.042,12.219 -197.289,14.287 -197.289,16.113C-197.289,25.24 -191.484,29.377 -181.973,29.377C-177.009,29.377 -170.899,25.078 -165.362,20.146" style="fill:rgb(43,37,35);fill-rule:nonzero;"/>
        </g>
        <g transform="matrix(1,0,0,1,592.307,250.502)">
            <path d="M0,-3.977C-12.772,-2.245 -14.133,4.069 -14.133,4.069C-14.133,4.069 -16.421,-10.062 5.729,-10.315C5.729,-10.315 6.138,-5.639 0,-3.977M-10.16,-9.661C-14.451,-6.941 -18.792,1.26 -15.901,5.361C-13.01,9.461 -3.727,8.268 0.308,5.188C5.5,1.225 9.388,-11.788 8.881,-12.507C8.374,-13.225 -4.203,-13.438 -10.16,-9.661" style="fill:rgb(43,37,35);fill-rule:nonzero;"/>
        </g>
        <g transform="matrix(1,0,0,1,595.276,262.643)">
            <path d="M0,-34.619C1.558,-34.619 2.839,-35.817 2.933,-37.35C2.976,-38.051 2.997,-38.798 2.997,-39.608C2.997,-47.519 -3.74,-50.987 -11.275,-50.987C-19.426,-50.987 -30.048,-47.701 -33.754,-30.299L-43.873,16.368C-37.863,12.744 -30.428,6.246 -23.577,-5.388C-23.341,-5.87 -23.097,-6.305 -22.839,-6.665C-23.668,-11.073 -21.16,-17.813 -17.615,-22.661L-15.968,-30.299C-14.239,-38.453 -10.328,-41.304 -7.611,-41.304C-5.14,-41.304 -2.931,-40.704 -2.931,-37.905C-2.931,-37.785 -2.933,-37.668 -2.936,-37.551C-2.974,-35.938 -1.637,-34.619 0,-34.619" style="fill:rgb(43,37,35);fill-rule:nonzero;"/>
        </g>
        <g transform="matrix(1,0,0,1,560.787,312.734)">
            <path d="M0,-31.655C-0.282,-31.329 -0.564,-31.014 -0.844,-30.707C-0.895,-30.65 -0.947,-30.595 -0.998,-30.54C-1.253,-30.264 -1.506,-29.996 -1.758,-29.736C-1.814,-29.679 -1.869,-29.621 -1.925,-29.565C-2.187,-29.296 -2.448,-29.036 -2.708,-28.784C-2.743,-28.75 -2.778,-28.715 -2.812,-28.681C-3.714,-27.811 -4.594,-27.037 -5.44,-26.347C-5.484,-26.312 -5.527,-26.278 -5.57,-26.244C-5.8,-26.057 -6.029,-25.877 -6.254,-25.704C-6.314,-25.657 -6.375,-25.611 -6.435,-25.566C-6.645,-25.406 -6.852,-25.252 -7.057,-25.102C-7.117,-25.059 -7.177,-25.015 -7.236,-24.972C-7.452,-24.817 -7.665,-24.668 -7.874,-24.524C-7.914,-24.497 -7.955,-24.468 -7.994,-24.44C-8.492,-24.102 -8.968,-23.797 -9.422,-23.52C-9.487,-23.481 -9.549,-23.444 -9.613,-23.406C-9.767,-23.314 -9.919,-23.224 -10.067,-23.139C-10.148,-23.092 -10.228,-23.046 -10.308,-23.001C-10.433,-22.931 -10.557,-22.862 -10.677,-22.796C-10.761,-22.751 -10.844,-22.705 -10.925,-22.662L-16.68,0.172C-18.518,7.984 -21.021,9.991 -23.424,9.012C-30.232,6.238 -24.884,-5.457 -22.681,-6.864C-22.267,-7.51 -22.837,-7.611 -23.265,-7.478C-27.328,-6.22 -35.007,-0.72 -35.454,7.352C-35.891,15.25 -28.414,20.495 -20.879,20.495C-12.851,20.495 -2.599,17.209 1.23,-0.193L13.05,-51.863C12.991,-52.15 4.38,-36.71 0,-31.655" style="fill:rgb(43,37,35);fill-rule:nonzero;"/>
        </g>
        <g transform="matrix(1,0,0,1,521.586,238.137)">
            <path d="M0,45.197C-0.371,46.657 -0.618,47.996 -0.741,49.213C-3.088,52.62 -5.805,55.297 -8.646,55.297C-11.734,55.297 -15.81,53.959 -15.81,46.657C-15.81,30.107 -8.399,10.758 0.864,10.758C2.594,10.758 4.941,11.245 6.917,12.948L0,45.197ZM-42.077,9.176C-38.372,9.176 -37.754,13.435 -37.754,15.991C-37.878,24.631 -45.906,34.244 -57.269,34.366C-54.676,22.927 -48.994,9.176 -42.077,9.176M25.321,52.376C24.856,52.627 23.419,53.078 23.032,53.168C18.22,54.288 17.292,51.647 17.292,48.97C17.292,47.874 17.539,46.536 17.786,45.197L25.837,7.739C26.271,5.721 24.708,3.821 22.615,3.821L11.513,3.821C9.979,3.821 8.649,4.864 8.304,6.337L8.152,6.985C5.929,5.16 2.841,3.943 -0.123,3.943C-23.54,3.943 -31.636,26.467 -32.416,46.642C-37.402,52.154 -44.093,55.906 -48.5,55.906C-53.317,55.906 -58.628,53.472 -58.628,45.44C-58.628,43.98 -58.505,42.155 -58.258,40.207C-46.524,38.747 -30.343,30.229 -30.343,15.382C-30.343,6.863 -36.025,2.726 -46.153,2.726C-68.633,2.726 -75.303,29.864 -75.303,45.319C-75.303,47.044 -75.111,48.718 -74.767,50.325C-77.326,52.204 -79.855,53.594 -82.083,53.594C-86.9,53.594 -88.259,51.768 -88.259,49.091C-88.259,48.118 -88.012,47.022 -87.641,45.197L-74.412,-16.008C-73.937,-18.205 -75.815,-20.201 -78.074,-19.9L-89.421,-18.389C-90.798,-18.206 -91.91,-17.19 -92.201,-15.851L-105.427,45.197C-105.922,47.509 -106.168,49.578 -106.168,51.403C-106.168,60.53 -100.363,64.668 -90.853,64.668C-85.621,64.668 -79.117,59.895 -73.354,54.637C-70.627,60.556 -65.085,64.668 -57.023,64.668C-47.115,64.668 -38.785,59.915 -32.207,53.307C-31.206,59.477 -27.198,65.398 -17.168,65.398C-9.634,65.398 -4.076,60.409 -0.371,55.419C0.964,60.679 4.921,64.997 10.866,64.408C21.026,63.403 24.667,53.863 25.321,52.376" style="fill:rgb(43,37,35);fill-rule:nonzero;"/>
        </g>
        <g transform="matrix(1,0,0,1,243.96,216.098)">
            <path d="M0,19.349C5.435,19.349 9.881,15.09 9.881,9.735C9.881,4.381 5.435,0 0,0C-5.435,0 -9.758,4.381 -9.758,9.735C-9.758,15.09 -5.435,19.349 0,19.349" style="fill:rgb(43,37,35);fill-rule:nonzero;"/>
        </g>
    </g>
</svg>
